<?xml version="1.0" encoding="UTF-8"?>
<svg version="1.1" xmlns="http://www.w3.org/2000/svg" width="1280" height="720">
<path d="M0 0 C13.19522042 10.79396318 20.94765758 22.90430351 24.31298828 39.73095703 C85.03298828 39.73095703 145.75298828 39.73095703 208.31298828 39.73095703 C209.79798828 33.79095703 209.79798828 33.79095703 211.31298828 27.73095703 C217.92837081 11.19250072 230.33283006 -0.01895141 246.43798828 -7.08154297 C262.71022093 -13.41542098 279.32330929 -12.71312499 295.37939453 -5.98388672 C311.46427516 2.23015617 321.961308 14.96171196 328.31298828 31.73095703 C332.8896758 46.82462168 331.51464098 63.66537225 324.84033203 77.86376953 C314.47510393 97.02596427 300.56249073 104.98112288 280.31298828 111.73095703 C280.31298828 172.12095703 280.31298828 232.51095703 280.31298828 294.73095703 C284.60298828 296.05095703 288.89298828 297.37095703 293.31298828 298.73095703 C309.18822459 306.04426814 320.04846741 317.99867759 327.27001953 333.79736328 C332.9379143 349.73964407 331.85893151 367.30736991 325.02783203 382.60986328 C321.51681563 389.64167607 316.84316225 395.19129734 311.31298828 400.73095703 C310.35585938 401.70548828 310.35585938 401.70548828 309.37939453 402.69970703 C298.25831259 413.24277016 282.36968295 418.19023528 267.23486328 417.93798828 C249.39175318 416.67370374 233.68911698 409.42354685 221.80908203 395.87548828 C214.84168422 387.00267361 211.04249428 378.64898104 208.31298828 367.73095703 C147.59298828 367.40095703 86.87298828 367.07095703 24.31298828 366.73095703 C23.65298828 370.03095703 22.99298828 373.33095703 22.31298828 376.73095703 C15.96918418 393.54001759 3.50625741 405.62382692 -12.55419922 413.03173828 C-27.03224721 419.26412245 -42.93834343 419.53163232 -57.67871094 413.98095703 C-73.70890272 407.33663671 -86.32622688 396.28859551 -93.24951172 380.07080078 C-99.54381097 363.06546389 -99.61798873 346.3173541 -92.12402344 329.7565918 C-84.66636892 314.1763966 -72.73686505 303.37887893 -56.62451172 297.16845703 C-52.89270165 295.87468621 -50.8339253 295.73095703 -46.68701172 295.73095703 C-46.68701172 234.68095703 -46.68701172 173.63095703 -46.68701172 110.73095703 C-49.32701172 110.40095703 -51.96701172 110.07095703 -54.68701172 109.73095703 C-56.8894043 109.02587891 -56.8894043 109.02587891 -58.58154297 108.19970703 C-59.22148193 107.88880127 -59.8614209 107.57789551 -60.52075195 107.25756836 C-61.17374268 106.91878662 -61.8267334 106.58000488 -62.49951172 106.23095703 C-63.19310791 105.87348389 -63.8867041 105.51601074 -64.60131836 105.14770508 C-80.19534518 96.83895343 -90.03133102 84.43660213 -95.68701172 67.73095703 C-95.93193359 67.02068359 -96.17685547 66.31041016 -96.42919922 65.57861328 C-100.82446773 49.89412771 -97.19429768 33.2565099 -89.83935547 19.19970703 C-81.29732058 4.68839266 -66.55176019 -5.91093004 -50.37451172 -10.14404297 C-32.92307324 -13.64684066 -14.44641547 -10.86721673 0 0 Z M-67.93701172 24.91845703 C-75.02484565 33.76344199 -77.23868128 44.45591355 -76.49951172 55.54345703 C-75.00429442 66.50838388 -69.35142526 75.90399671 -60.68701172 82.73095703 C-50.89568582 89.23436728 -40.69363025 92.40175003 -28.99169922 90.23095703 C-18.19809346 87.58517066 -8.5041344 82.54351398 -2.49951172 72.91845703 C3.31298563 62.57160311 5.84006289 52.44937108 3.25048828 40.54345703 C-0.07048779 29.27585966 -6.85430269 20.15442141 -17.19091797 14.31689453 C-19.33984665 13.33270643 -21.44139196 12.46493392 -23.68701172 11.73095703 C-24.26580078 11.54146484 -24.84458984 11.35197266 -25.44091797 11.15673828 C-42.22589943 7.97488962 -56.18858956 12.66183341 -67.93701172 24.91845703 Z M250.31298828 14.73095703 C249.14703125 15.36710937 249.14703125 15.36710937 247.95751953 16.01611328 C238.56979689 21.66132673 233.01861026 30.25092035 229.73095703 40.55517578 C227.64772307 51.39967409 229.02103938 62.84684097 234.89111328 72.26220703 C236.58801125 74.55531239 238.36401824 76.64929116 240.31298828 78.73095703 C241.09802734 79.57787109 241.09802734 79.57787109 241.89892578 80.44189453 C249.6464933 87.88711795 260.87648341 91.17317702 271.44189453 91.00048828 C282.8197789 89.93236036 292.29917993 84.97028319 300.18798828 76.78564453 C307.69903602 67.50950057 310.27750249 56.42738985 309.31298828 44.73095703 C306.74302402 31.96924878 300.70338431 23.43830672 290.31298828 15.73095703 C278.32893176 9.06674611 262.44314306 7.81482971 250.31298828 14.73095703 Z M24.31298828 60.73095703 C22.66298828 65.68095703 21.01298828 70.63095703 19.31298828 75.73095703 C16.37548828 80.91845703 16.37548828 80.91845703 15.03564453 82.89892578 C14.07983789 84.7246258 14.07983789 84.7246258 14.98971558 86.55316162 C16.61800231 89.23293834 18.53796435 91.19514088 20.76269531 93.40771484 C21.68349884 94.32836731 22.60430237 95.24901978 23.55300903 96.1975708 C24.55883293 97.19318233 25.56476608 98.18868351 26.57080078 99.18408203 C27.59970977 100.20925896 28.62817665 101.23487978 29.65621948 102.26092529 C32.3578041 104.95488868 35.06534169 107.64279071 37.77416992 110.32946777 C40.53943317 113.07424007 43.29901461 115.82471176 46.05908203 118.57470703 C51.47151103 123.96571276 56.89024266 129.35032667 62.31298828 134.73095703 C63.41368652 134.1024585 64.51438477 133.47395996 65.6484375 132.82641602 C66.26758026 132.47288559 66.88672302 132.11935516 67.52462769 131.75511169 C69.00117629 130.90952488 70.47399792 130.05743363 71.94580078 129.20361328 C93.27440795 117.13523211 116.17029726 113.52127674 140.04345703 119.69580078 C149.31160406 122.54827712 157.08777153 126.65130121 165.31298828 131.73095703 C166.96298828 132.72095703 168.61298828 133.71095703 170.31298828 134.73095703 C186.15298828 118.89095703 201.99298828 103.05095703 218.31298828 86.73095703 C216.65189921 81.6803891 216.65189921 81.6803891 214.43798828 77.10595703 C211.89185362 71.86391508 210.15586119 66.25957576 208.31298828 60.73095703 C147.59298828 60.73095703 86.87298828 60.73095703 24.31298828 60.73095703 Z M-4.74951172 102.91845703 C-9.68701172 105.73095703 -9.68701172 105.73095703 -25.68701172 110.73095703 C-25.68701172 171.45095703 -25.68701172 232.17095703 -25.68701172 294.73095703 C-22.71701172 295.72095703 -19.74701172 296.71095703 -16.68701172 297.73095703 C-13.57406522 299.21135012 -10.52987281 300.77040889 -7.48779297 302.38916016 C-4.66311642 303.8578667 -2.92349483 304.73095703 0.31298828 304.73095703 C2.62794752 302.85635698 2.62794752 302.85635698 5.05981445 300.32470703 C5.52842392 299.85653564 5.99703339 299.38836426 6.47984314 298.90600586 C8.02909628 297.35466041 9.56745017 295.79295446 11.10595703 294.23095703 C12.17718635 293.15413333 13.24907936 292.07796948 14.3216095 291.00244141 C17.14440086 288.16818885 19.95806837 285.32504307 22.7699585 282.47998047 C25.64019555 279.57907006 28.51893079 276.68662062 31.39697266 273.79345703 C37.04401823 268.11422483 42.68145746 262.42557381 48.31298828 256.73095703 C47.82920212 255.97663895 47.34541595 255.22232086 46.8469696 254.44514465 C46.21402481 253.45511948 45.58108002 252.4650943 44.92895508 251.44506836 C44.30079391 250.46387527 43.67263275 249.48268219 43.0254364 248.47175598 C30.90020341 229.06513836 27.22264851 205.70413331 32.27392578 183.49267578 C35.13081164 173.14988975 38.68000938 163.80079901 44.89501953 154.96533203 C46.7445035 152.05284403 46.7445035 152.05284403 47.31298828 148.73095703 C45.59736866 146.27537349 45.59736866 146.27537349 43.03613281 143.87060547 C42.56971375 143.40184998 42.10329468 142.93309448 41.6227417 142.45013428 C40.07547739 140.90125286 38.51111678 139.37095086 36.94580078 137.84033203 C35.86958012 136.77089776 34.79438693 135.70042859 33.72018433 134.62896729 C31.46602827 132.38549769 29.20410066 130.15029548 26.93554688 127.92138672 C24.0207746 125.05754351 21.11906599 122.18092161 18.22220039 119.2989769 C15.46729354 116.55882899 12.70717348 113.8239621 9.94580078 111.09033203 C9.1502799 110.30217731 9.1502799 110.30217731 8.3386879 109.49810028 C6.84481161 108.02042556 5.34741287 106.54642915 3.84863281 105.07373047 C2.99512238 104.23308044 2.14161194 103.39243042 1.26223755 102.52630615 C-1.70635649 99.79209315 -1.18217986 100.37036285 -4.74951172 102.91845703 Z M233.31298828 100.73095703 C217.47298828 116.57095703 201.63298828 132.41095703 185.31298828 148.73095703 C186.77312068 152.38128803 187.99678343 154.96361779 190.06298828 158.16845703 C201.58285908 177.18046874 205.914803 199.53884398 201.13012695 221.43212891 C198.48261349 231.85311078 194.44219004 241.43713582 188.64501953 250.47705078 C187.0184004 253.09849616 187.0184004 253.09849616 185.31298828 257.73095703 C201.15298828 273.57095703 216.99298828 289.41095703 233.31298828 305.73095703 C237.93298828 303.42095703 242.55298828 301.11095703 247.31298828 298.73095703 C250.94298828 297.74095703 254.57298828 296.75095703 258.31298828 295.73095703 C258.31298828 234.68095703 258.31298828 173.63095703 258.31298828 110.73095703 C253.36298828 109.08095703 248.41298828 107.43095703 243.31298828 105.73095703 C240.01298828 104.08095703 236.71298828 102.43095703 233.31298828 100.73095703 Z M95.31298828 140.73095703 C94.45576172 141.00939453 93.59853516 141.28783203 92.71533203 141.57470703 C86.15086936 143.92857927 80.80858516 147.48477097 75.31298828 151.73095703 C74.62333984 152.24271484 73.93369141 152.75447266 73.22314453 153.28173828 C61.25626978 162.8315413 53.72609549 177.78670499 51.31298828 192.73095703 C49.69094009 212.44626816 53.25375166 229.62936734 65.50048828 245.54345703 C77.49427124 259.34341035 93.95758242 267.53957601 112.12548828 269.04736328 C130.19475129 269.82998671 146.98424689 264.06973196 160.71533203 252.19580078 C174.68829819 238.93724192 181.97495746 222.51131053 182.68798828 203.23095703 C182.06242538 184.15128842 174.54800836 166.64553117 160.58642578 153.56689453 C142.21860846 138.73377745 117.93195361 132.93363169 95.31298828 140.73095703 Z M60.25021362 273.55322266 C59.40194 274.4059375 58.55366638 275.25865234 57.6796875 276.13720703 C57.21122406 276.60537842 56.74276062 277.0735498 56.26010132 277.5559082 C54.7078408 279.10956567 53.16278991 280.67019492 51.61767578 282.23095703 C50.54479823 283.30756342 49.4714792 284.38373002 48.3977356 285.45947266 C45.56894953 288.29590539 42.74621985 291.13829243 39.92468262 293.98193359 C37.04601207 296.88104034 34.1616916 299.7745136 31.27783203 302.66845703 C25.61731868 308.35043852 19.96318698 314.03871859 14.31298828 319.73095703 C15.95432693 323.90462201 17.87875957 327.79250536 19.99658203 331.74267578 C21.83580353 335.91776316 23.00203648 340.36111771 24.31298828 344.73095703 C85.03298828 344.73095703 145.75298828 344.73095703 208.31298828 344.73095703 C209.30298828 341.76095703 210.29298828 338.79095703 211.31298828 335.73095703 C212.85352109 332.64036235 214.44303067 329.62026097 216.14697266 326.61962891 C217.2261639 324.68046368 217.2261639 324.68046368 218.31298828 321.73095703 C217.07016291 318.06263756 214.56945537 315.7455855 211.86328125 313.05419922 C210.94247772 312.13354675 210.02167419 311.21289429 209.07296753 310.26434326 C208.06714363 309.26873173 207.06121048 308.27323055 206.05517578 307.27783203 C205.02626679 306.2526551 203.99779991 305.22703428 202.96975708 304.20098877 C200.26817247 301.50702539 197.56063487 298.81912336 194.85180664 296.13244629 C192.0865434 293.38767399 189.32696195 290.63720231 186.56689453 287.88720703 C181.15446554 282.49620131 175.7357339 277.11158739 170.31298828 271.73095703 C169.36472168 272.27655273 168.41645508 272.82214844 167.43945312 273.38427734 C166.17598159 274.10927773 164.91247036 274.83420895 163.64892578 275.55908203 C163.02622803 275.91760254 162.40353027 276.27612305 161.76196289 276.64550781 C141.33035758 288.35516227 117.96480847 292.89400638 94.68798828 287.23095703 C85.03980867 284.36202743 75.60489954 279.93781827 67.47314453 273.97705078 C63.69603845 271.06115398 63.69603845 271.06115398 60.25021362 273.55322266 Z M-67.82373047 330.15673828 C-74.72286272 339.45682641 -77.55779632 349.60672193 -76.31982422 361.15673828 C-74.3700568 372.16931352 -69.68867084 381.12023399 -60.93701172 388.23095703 C-50.65777326 395.08378267 -40.78927095 396.59280297 -28.68701172 395.73095703 C-18.28905518 393.44784236 -8.7068491 387.58571783 -2.68701172 378.73095703 C4.1213736 367.3458238 5.74969151 356.76911492 2.59423828 343.77001953 C-0.94787907 332.86884804 -7.69512311 325.25655732 -17.68701172 319.73095703 C-35.38473009 311.53667099 -54.84469782 315.42185843 -67.82373047 330.15673828 Z M238.17236328 329.34814453 C229.95562303 339.87800073 228.39431705 350.77769262 229.31298828 363.73095703 C231.41348208 373.68932219 236.90671673 382.52111952 245.06298828 388.60595703 C255.96807294 395.54257479 266.85669881 397.69733498 279.65673828 395.03564453 C290.386553 391.81128102 298.62452922 385.23833384 304.56689453 375.72314453 C309.70869825 366.04668735 311.01349514 355.23922543 308.18798828 344.60595703 C304.3812774 333.60879225 297.60342214 324.88836963 287.25048828 319.35595703 C270.09414651 311.73840646 251.06070187 315.78961233 238.17236328 329.34814453 Z " fill="#4D74FF" transform="translate(524.68701171875,165.26904296875)"/>
<path d="M0 0 C3.62566944 0.57831472 5.29288004 1.92602607 7.85058594 4.51000977 C8.59105164 5.25070206 9.33151733 5.99139435 10.09442139 6.75453186 C10.88310608 7.55870041 11.67179077 8.36286896 12.484375 9.19140625 C13.29996887 10.01124496 14.11556274 10.83108368 14.95587158 11.67576599 C17.56103106 14.29772762 20.15557079 16.92992448 22.75 19.5625 C24.51363369 21.34117845 26.2779484 23.11918192 28.04296875 24.89648438 C32.36991403 29.2565194 36.68818398 33.62500527 41 38 C40.34 38.66 39.68 39.32 39 40 C33.44232901 34.46758802 27.88850659 28.93133483 22.33740234 23.39233398 C20.44697429 21.50638658 18.5553081 19.62169386 16.66259766 17.73803711 C13.94981564 15.03732137 11.24021833 12.33344662 8.53125 9.62890625 C7.67817261 8.78099014 6.82509521 7.93307404 5.94616699 7.0594635 C5.16535767 6.27872971 4.38454834 5.49799591 3.58007812 4.69360352 C2.88724731 4.00299332 2.1944165 3.31238312 1.48059082 2.60084534 C0 1 0 1 0 0 Z " fill="#4161FF" transform="translate(694,436)"/>
<path d="M0 0 C3.31945598 0.58301412 4.94397352 1.57443222 7.29980469 3.95922852 C7.92014587 4.5797963 8.54048706 5.20036407 9.17962646 5.83973694 C9.83706848 6.51266281 10.4945105 7.18558868 11.171875 7.87890625 C11.8542926 8.5655687 12.53671021 9.25223114 13.23980713 9.95970154 C15.41701196 12.15369415 17.58355281 14.35788916 19.75 16.5625 C21.22456971 18.05211634 22.69982213 19.5410572 24.17578125 21.02929688 C27.79182176 24.67840808 31.39833288 28.33670379 35 32 C34.67 32.99 34.34 33.98 34 35 C33.31591064 34.31518555 32.63182129 33.63037109 31.92700195 32.92480469 C29.29332291 30.29106787 26.65305081 27.66400915 24.01200867 25.03765869 C21.41708871 22.45611583 18.82482047 19.87191704 16.23266602 17.28759766 C14.86114851 15.9211556 13.48874184 14.55560548 12.11547852 13.19091797 C10.13065006 11.21813882 8.14899822 9.24221804 6.16796875 7.265625 C5.54931442 6.65213196 4.9306601 6.03863892 4.29325867 5.40655518 C2.84306972 3.95656028 1.41857989 2.48093358 0 1 C0 0.67 0 0.34 0 0 Z " fill="#3F5EFF" transform="translate(539,281)"/>
</svg>
